<svg xmlns="http://www.w3.org/2000/svg" width="215" height="50" viewBox="0 0 215 50" fill="none">
  <path d="M178.26 25.8461V22.1658H188.675V25.8461H178.26Z" fill="#002B75"/>
  <path d="M194.835 15.5244C194.037 15.5244 193.417 15.3129 192.929 14.8475C192.442 14.3822 192.176 13.79 192.176 13.0708C192.176 12.3094 192.442 11.7172 192.929 11.2519C193.417 10.7865 194.081 10.5327 194.835 10.5327C195.544 10.5327 196.164 10.7442 196.696 11.2095C197.228 11.6749 197.494 12.2671 197.494 13.0285C197.494 13.7477 197.228 14.3822 196.741 14.8052C196.253 15.3129 195.633 15.5244 194.835 15.5244ZM192.708 32.4452V17.0896H197.006V32.4875H192.708V32.4452Z" fill="#002B75"/>
  <path d="M207.598 32.6568C205.958 32.6568 204.54 32.3183 203.344 31.6838C202.191 31.0493 201.261 30.1186 200.685 28.9342C200.108 27.7497 199.754 26.3537 199.754 24.7886C199.754 23.1811 200.064 21.7851 200.685 20.5583C201.305 19.3316 202.236 18.4432 203.432 17.7664C204.629 17.0896 206.047 16.7935 207.775 16.7935C209.061 16.7935 210.257 17.005 211.277 17.4703C212.296 17.9356 213.138 18.5701 213.758 19.4162C214.379 20.2622 214.733 21.2775 214.866 22.5042H210.656C210.479 21.8274 210.124 21.3198 209.593 21.0237C209.061 20.7276 208.44 20.5583 207.731 20.5583C206.801 20.5583 206.091 20.7699 205.56 21.1929C205.028 21.6159 204.629 22.1658 204.407 22.8427C204.186 23.5195 204.053 24.154 204.053 24.8309C204.053 25.55 204.186 26.2268 204.407 26.8614C204.673 27.4959 205.028 28.0035 205.604 28.4265C206.136 28.8073 206.845 29.0188 207.731 29.0188C208.485 29.0188 209.105 28.8496 209.637 28.5535C210.169 28.2573 210.523 27.7497 210.701 27.0306H214.999C214.911 28.2996 214.512 29.3572 213.803 30.2032C213.094 31.0493 212.207 31.6838 211.144 32.1068C210.08 32.4453 208.883 32.6568 207.598 32.6568Z" fill="#002B75"/>
  <path d="M31.2559 32.4875V17.0895H35.1115L35.4661 18.8239C35.8206 18.3163 36.3081 17.8933 36.84 17.5971C37.3275 17.3433 37.815 17.1318 38.3468 17.0472C38.79 16.9626 39.2775 16.9203 39.765 16.9203C40.6513 16.9203 41.4934 17.0895 42.2911 17.4279C43.0445 17.8086 43.665 18.4009 44.0638 19.12C44.4627 18.6124 44.9059 18.1471 45.482 17.8086C45.9695 17.5125 46.5456 17.2587 47.1218 17.1318C47.6979 17.0049 48.2741 16.9203 48.8502 16.9203C49.9138 16.878 50.9775 17.1318 51.8638 17.6817C52.6172 18.1894 53.2377 18.9085 53.5479 19.7545C53.9025 20.7275 54.0797 21.7851 54.0797 22.8003V32.5721H49.7809V23.8156C49.7809 23.4348 49.7809 23.0964 49.7366 22.758C49.6922 22.3773 49.6036 22.0389 49.4263 21.7004C49.2934 21.362 49.0275 21.1082 48.7616 20.8967C48.407 20.6852 47.9638 20.5583 47.5206 20.5583C47.0775 20.5583 46.6343 20.6429 46.2354 20.8967C45.8809 21.1082 45.615 21.4043 45.3934 21.7428C45.1718 22.1235 45.0388 22.5042 44.9502 22.9272C44.8616 23.3502 44.8172 23.7733 44.8172 24.1963V32.5298H40.5627V23.7733C40.5627 23.4348 40.5627 23.0541 40.5184 22.7157C40.4741 22.335 40.3854 21.9966 40.2525 21.6581C40.1195 21.3197 39.8536 21.0659 39.5434 20.8544C38.5684 20.3468 37.3718 20.4737 36.5297 21.1505C36.1309 21.5735 35.865 22.0812 35.732 22.6311C35.599 23.1387 35.5547 23.6886 35.5547 24.2386V32.4875H31.2559Z" fill="#002B75"/>
  <path d="M59.7967 15.5241C59.0876 15.5664 58.3785 15.3125 57.8467 14.8472C57.3592 14.3819 57.0933 13.7474 57.1376 13.0705C57.0933 12.3937 57.4035 11.7169 57.891 11.2092C58.4228 10.7439 59.0876 10.4901 59.841 10.5324C60.5058 10.5324 61.1706 10.7862 61.7024 11.2092C62.2342 11.6746 62.5001 12.3514 62.5001 13.0282C62.5444 13.7051 62.2785 14.3396 61.7467 14.8049C61.1706 15.3125 60.5058 15.5664 59.7967 15.5241ZM57.6251 32.4449V17.0892H61.924V32.4872L57.6251 32.4449Z" fill="#002B75"/>
  <path d="M72.825 32.6566C71.3625 32.6989 69.9 32.3605 68.5705 31.7259C67.4182 31.0914 66.4875 30.1184 65.9114 28.9763C65.2909 27.6649 64.9364 26.2689 64.9807 24.8307C64.9364 23.3501 65.2466 21.9118 65.9114 20.6005C66.5319 19.416 67.4625 18.443 68.6591 17.8085C69.9887 17.1317 71.4955 16.7933 73.0023 16.8356C74.1989 16.8356 75.3955 17.0471 76.5035 17.5124C77.4785 17.9354 78.3205 18.6123 78.9853 19.4583C79.65 20.3889 80.0046 21.4465 80.0489 22.5464H75.8387C75.7057 21.9541 75.3512 21.4042 74.775 21.0658C74.1989 20.7274 73.5785 20.6005 72.9137 20.6005C72.1159 20.5582 71.3625 20.7697 70.7421 21.235C70.2103 21.658 69.8114 22.2502 69.5898 22.8848C69.3682 23.5193 69.2353 24.1961 69.2353 24.873C69.2353 25.5498 69.3682 26.2689 69.5898 26.9035C69.8114 27.4957 70.2103 28.0456 70.7864 28.4687C71.4069 28.8917 72.1603 29.1032 72.9137 29.0609C73.5785 29.0609 74.2432 28.8917 74.8637 28.5956C75.4398 28.2571 75.7944 27.7072 75.9273 27.0727H80.2262C80.1819 28.2148 79.7387 29.3147 79.0296 30.2453C78.3205 31.0914 77.4341 31.7259 76.3705 32.1066C75.2625 32.4874 74.066 32.6989 72.825 32.6566Z" fill="#002B75"/>
  <path d="M83.1074 32.4872V17.0893H86.9631L87.229 18.9083C87.5836 18.3583 88.0711 17.9353 88.6472 17.5969C89.1347 17.3008 89.6665 17.0893 90.2427 17.0047C90.8188 16.8778 91.3506 16.8354 91.9267 16.8354C92.1927 16.8354 92.4143 16.8354 92.6802 16.8354H93.1677V20.7695H92.1483C91.3063 20.7695 90.4199 20.8965 89.6222 21.2349C88.9131 21.531 88.337 22.0386 87.9824 22.7154C87.5836 23.5192 87.362 24.3652 87.4063 25.2536V32.4872H83.1074Z" fill="#002B75"/>
  <path d="M102.651 32.6564C101.189 32.6987 99.6817 32.3603 98.3965 31.7257C97.1999 31.0912 96.1806 30.1606 95.5601 29.0184C94.851 27.707 94.4965 26.2688 94.5408 24.8305C94.4965 23.3499 94.851 21.8693 95.5601 20.558C96.1806 19.3735 97.1999 18.4429 98.3965 17.766C99.6817 17.0892 101.144 16.7931 102.607 16.7931C104.069 16.7508 105.576 17.0892 106.861 17.766C108.058 18.4006 109.033 19.3735 109.698 20.558C110.407 21.8693 110.761 23.3499 110.717 24.8305C110.761 26.2688 110.407 27.707 109.742 29.0184C109.122 30.1606 108.147 31.0912 106.95 31.7257C105.62 32.3603 104.158 32.6987 102.651 32.6564ZM102.607 28.9338C103.404 28.9761 104.202 28.7646 104.867 28.3416C105.443 27.9609 105.842 27.4109 106.108 26.8187C106.374 26.1842 106.507 25.5073 106.507 24.8305C106.507 24.1537 106.374 23.4768 106.108 22.8C105.842 22.1655 105.443 21.6155 104.867 21.1925C104.202 20.7272 103.404 20.5157 102.607 20.558C101.809 20.5157 101.056 20.7272 100.391 21.1925C99.8147 21.6155 99.4158 22.1655 99.1499 22.8C98.884 23.4345 98.751 24.1114 98.751 24.8305C98.751 25.5073 98.884 26.1842 99.1499 26.861C99.4158 27.4532 99.8147 28.0032 100.391 28.3839C101.056 28.7646 101.809 28.9761 102.607 28.9338Z" fill="#002B75"/>
  <path d="M121.001 32.6566C119.538 32.6989 118.076 32.3605 116.746 31.7259C115.594 31.0914 114.663 30.1607 114.087 28.9763C113.467 27.6649 113.112 26.2689 113.156 24.8307C113.112 23.3501 113.422 21.9118 114.087 20.6005C114.708 19.416 115.638 18.443 116.835 17.8085C118.164 17.1317 119.671 16.7933 121.178 16.8356C122.375 16.8356 123.571 17.0471 124.679 17.5124C125.654 17.9354 126.496 18.6123 127.161 19.4583C127.826 20.3889 128.18 21.4465 128.269 22.5464H124.059C123.926 21.9541 123.571 21.4042 122.995 21.0658C122.419 20.7274 121.799 20.6005 121.134 20.6005C120.336 20.5582 119.583 20.7697 118.962 21.235C118.43 21.658 118.031 22.2502 117.81 22.8848C117.588 23.5193 117.455 24.1961 117.455 24.873C117.455 25.5498 117.588 26.2689 117.81 26.9035C118.031 27.538 118.43 28.0456 119.007 28.4687C119.627 28.8917 120.38 29.1032 121.134 29.0609C121.799 29.0609 122.463 28.8917 123.039 28.5956C123.616 28.2571 123.97 27.7072 124.103 27.0727H128.402C128.358 28.2148 127.914 29.3147 127.205 30.2453C126.496 31.0914 125.61 31.7259 124.546 32.1066C123.394 32.4874 122.197 32.6989 121.001 32.6566Z" fill="#002B75"/>
  <path d="M131.283 32.4875V11.8018H135.582V18.8662C136.025 18.3586 136.557 17.9356 137.178 17.6395C137.754 17.3433 138.33 17.1318 138.95 17.0049C139.482 16.878 140.058 16.8357 140.634 16.8357C142.141 16.8357 143.338 17.1741 144.18 17.8087C145.066 18.4855 145.687 19.3738 145.997 20.4314C146.396 21.5736 146.573 22.8003 146.529 24.0271V32.5298H142.23V24.577C142.23 24.1117 142.185 23.6464 142.097 23.181C142.008 22.7157 141.831 22.2927 141.609 21.8697C141.388 21.489 141.078 21.1505 140.679 20.8967C140.191 20.6429 139.615 20.516 139.039 20.516C138.463 20.516 137.931 20.6429 137.399 20.8967C136.956 21.1505 136.601 21.489 136.291 21.912C136.025 22.335 135.804 22.8003 135.715 23.3079C135.582 23.8156 135.538 24.3232 135.538 24.8308V32.4875H131.283Z" fill="#002B75"/>
  <path d="M152.2 15.5243C151.491 15.5666 150.782 15.3128 150.25 14.8475C149.762 14.3821 149.496 13.7476 149.496 13.0708C149.452 12.3939 149.762 11.7171 150.25 11.2095C150.782 10.7442 151.446 10.4903 152.2 10.5326C152.865 10.5326 153.529 10.7865 154.061 11.2095C154.593 11.6748 154.859 12.3516 154.859 13.0285C154.903 13.7053 154.637 14.3398 154.105 14.8052C153.618 15.3128 152.909 15.5666 152.2 15.5243ZM150.073 32.4452V17.0895H154.371V32.4875L150.073 32.4452Z" fill="#002B75"/>
  <path d="M158.051 38.2403V17.0892H162.039L162.261 18.9928C162.881 18.2737 163.635 17.7238 164.521 17.3431C165.408 17.0046 166.383 16.7931 167.313 16.8354C170.061 16.6662 172.631 18.2737 173.606 20.7272C174.138 21.9963 174.404 23.35 174.404 24.7459C174.449 26.1419 174.138 27.5379 173.606 28.8069C173.119 29.9491 172.277 30.9221 171.169 31.6412C169.972 32.3603 168.554 32.741 167.136 32.6564C166.471 32.6564 165.806 32.5718 165.186 32.4026C164.61 32.2757 164.078 32.0642 163.591 31.7681C163.147 31.5143 162.749 31.2182 162.394 30.8797V38.198H158.051V38.2403ZM166.383 29.0185C167.18 29.0608 167.978 28.8492 168.643 28.4262C169.175 28.0455 169.574 27.4956 169.795 26.861C170.017 26.2265 170.15 25.5497 170.15 24.8728C170.15 24.1537 170.017 23.4346 169.795 22.7577C169.574 22.1232 169.13 21.5733 168.599 21.1503C167.934 20.7272 167.136 20.5157 166.338 20.558C165.585 20.5157 164.787 20.7272 164.167 21.1503C163.591 21.531 163.103 22.0809 162.837 22.7154C162.527 23.35 162.394 24.0691 162.394 24.7882C162.394 25.5074 162.527 26.2265 162.837 26.861C163.103 27.4956 163.591 28.0455 164.167 28.4262C164.787 28.8069 165.585 29.0185 166.383 29.0185Z" fill="#002B75"/>
  <path d="M26.2912 46.4047C29.057 46.4047 31.2991 44.738 31.2991 42.6821C31.2991 40.6261 29.057 38.9595 26.2912 38.9595C23.5253 38.9595 21.2832 40.6261 21.2832 42.6821C21.2832 44.738 23.5253 46.4047 26.2912 46.4047Z" fill="url(#paint0_linear_86_15943)"/>
  <path d="M19.6883 31.5993C21.4611 33.6721 21.1952 36.5909 19.3338 37.86C17.5611 39.0868 14.5918 38.833 12.9077 36.8448C11.3565 35.0258 11.2679 32.1492 13.1293 30.7109C14.9906 29.2727 18.0043 29.6111 19.6883 31.5993Z" fill="url(#paint1_linear_86_15943)"/>
  <path d="M10.4261 24.6192C10.4705 26.9035 8.96364 28.5956 7.19091 28.5956C5.15227 28.5956 4 26.8189 4 24.6192C4 22.1657 5.41818 20.6428 7.23523 20.6428C9.05228 20.6428 10.3818 22.2503 10.4261 24.6192Z" fill="url(#paint2_linear_86_15943)"/>
  <path d="M19.1123 17.0473C17.8271 18.6125 15.5668 19.0355 13.7498 18.1049C12.243 17.3011 11.8884 14.6361 13.218 12.9017C14.5475 11.1673 17.2509 10.9135 18.5805 11.8442C20.3532 13.1132 20.4862 15.2283 19.1123 17.0473Z" fill="url(#paint3_linear_86_15943)"/>
  <path d="M26.2907 8.75582C28.1264 8.75582 29.6145 7.63839 29.6145 6.25999C29.6145 4.88158 28.1264 3.76416 26.2907 3.76416C24.4549 3.76416 22.9668 4.88158 22.9668 6.25999C22.9668 7.63839 24.4549 8.75582 26.2907 8.75582Z" fill="url(#paint4_linear_86_15943)"/>
  <path d="M38.7456 46.3623C39.1888 47.3352 37.3274 48.7312 34.9342 49.4927C32.6297 50.2118 30.4581 50.2118 30.0592 49.1965C29.6603 48.1813 31.4774 46.5315 33.649 45.8124C35.8206 45.0932 38.3024 45.347 38.7456 46.3623Z" fill="url(#paint5_linear_86_15943)"/>
  <path d="M22.6135 49.1123C22.3476 50.1698 19.9544 50.2544 17.6055 49.4507C15.301 48.6892 13.5725 47.3356 13.9271 46.3203C14.2816 45.3051 16.7191 45.0512 18.8907 45.7704C21.0623 46.4895 22.8794 48.0547 22.6135 49.1123Z" fill="url(#paint6_linear_86_15943)"/>
  <path d="M12.3775 43.9514C11.4025 44.882 8.92063 44.0783 7.45813 42.5554C5.90699 40.9479 5.02063 38.8328 6.03995 37.9445C7.32518 36.8446 9.36382 37.6483 10.9593 39.1712C12.5547 40.6941 13.5297 42.8515 12.3775 43.9514Z" fill="url(#paint7_linear_86_15943)"/>
  <path d="M3.2466 35.8293C2.40456 36.1677 1.11933 34.6872 0.454556 32.7836C-0.210218 30.88 -0.1659 29.1456 0.720465 28.8495C1.60683 28.5534 2.98069 30.0339 3.64547 31.7683C4.31024 33.5027 4.08865 35.4909 3.2466 35.8293Z" fill="url(#paint8_linear_86_15943)"/>
  <path d="M0.941669 19.6699C0.188259 19.5007 0.0996226 17.9779 0.631441 16.4127C1.16326 14.8475 2.13826 13.7899 2.89167 13.9592C3.64508 14.1284 3.77804 15.7358 3.29053 17.1741C2.89167 18.3586 1.7394 19.8392 0.941669 19.6699Z" fill="url(#paint9_linear_86_15943)"/>
  <path d="M7.05809 10.1942C6.21604 9.55965 6.79218 8.24828 7.85581 7.06382C8.91945 5.87936 10.3376 5.37173 11.0024 5.96396C11.6672 6.55619 11.5342 7.74065 10.2933 9.09432C9.53991 9.98267 7.85581 10.7864 7.05809 10.1942Z" fill="url(#paint10_linear_86_15943)"/>
  <path d="M20.3982 0.464695C20.6198 0.972321 19.6891 1.73376 18.4482 2.11448C17.2073 2.4952 16.0993 2.41059 15.8777 1.86067C15.6561 1.31074 16.2766 0.845414 17.7391 0.295486C18.7584 -0.0852335 20.1766 -0.127536 20.3982 0.464695Z" fill="url(#paint11_linear_86_15943)"/>
  <path d="M32.3206 0.380092C32.4978 -0.0429294 33.7388 -0.169836 34.9353 0.295488C36.1319 0.760812 36.974 1.52225 36.7967 2.07218C36.6194 2.4952 35.7331 2.5798 34.2263 2.11448C33.1183 1.77606 32.0547 0.972322 32.3206 0.380092Z" fill="url(#paint12_linear_86_15943)"/>
  <defs>
    <linearGradient id="paint0_linear_86_15943" x1="37.6499" y1="42.5863" x2="5.24035" y2="42.9392" gradientUnits="userSpaceOnUse">
      <stop stop-color="#002B75"/>
      <stop offset="1" stop-color="#0075F8"/>
    </linearGradient>
    <linearGradient id="paint1_linear_86_15943" x1="37.5575" y1="33.986" x2="5.14788" y2="34.3389" gradientUnits="userSpaceOnUse">
      <stop stop-color="#002B75"/>
      <stop offset="1" stop-color="#0075F8"/>
    </linearGradient>
    <linearGradient id="paint2_linear_86_15943" x1="37.4558" y1="24.2982" x2="5.04182" y2="24.651" gradientUnits="userSpaceOnUse">
      <stop stop-color="#002B75"/>
      <stop offset="1" stop-color="#0075F8"/>
    </linearGradient>
    <linearGradient id="paint3_linear_86_15943" x1="37.3492" y1="14.7726" x2="4.93962" y2="15.1208" gradientUnits="userSpaceOnUse">
      <stop stop-color="#002B75"/>
      <stop offset="1" stop-color="#0075F8"/>
    </linearGradient>
    <linearGradient id="paint4_linear_86_15943" x1="37.255" y1="6.16536" x2="4.84098" y2="6.51358" gradientUnits="userSpaceOnUse">
      <stop stop-color="#002B75"/>
      <stop offset="1" stop-color="#0075F8"/>
    </linearGradient>
    <linearGradient id="paint5_linear_86_15943" x1="37.7086" y1="47.6667" x2="5.29455" y2="48.0196" gradientUnits="userSpaceOnUse">
      <stop stop-color="#002B75"/>
      <stop offset="1" stop-color="#0075F8"/>
    </linearGradient>
    <linearGradient id="paint6_linear_86_15943" x1="37.7038" y1="47.5051" x2="5.29424" y2="47.858" gradientUnits="userSpaceOnUse">
      <stop stop-color="#002B75"/>
      <stop offset="1" stop-color="#0075F8"/>
    </linearGradient>
    <linearGradient id="paint7_linear_86_15943" x1="37.6344" y1="40.6224" x2="5.2204" y2="40.9753" gradientUnits="userSpaceOnUse">
      <stop stop-color="#002B75"/>
      <stop offset="1" stop-color="#0075F8"/>
    </linearGradient>
    <linearGradient id="paint8_linear_86_15943" x1="37.5356" y1="31.998" x2="5.12604" y2="32.3509" gradientUnits="userSpaceOnUse">
      <stop stop-color="#002B75"/>
      <stop offset="1" stop-color="#0075F8"/>
    </linearGradient>
    <linearGradient id="paint9_linear_86_15943" x1="37.3667" y1="16.4549" x2="4.95716" y2="16.8077" gradientUnits="userSpaceOnUse">
      <stop stop-color="#002B75"/>
      <stop offset="1" stop-color="#0075F8"/>
    </linearGradient>
    <linearGradient id="paint10_linear_86_15943" x1="37.2742" y1="7.78829" x2="4.86015" y2="8.14115" gradientUnits="userSpaceOnUse">
      <stop stop-color="#002B75"/>
      <stop offset="1" stop-color="#0075F8"/>
    </linearGradient>
    <linearGradient id="paint11_linear_86_15943" x1="37.1993" y1="0.999986" x2="4.78973" y2="1.35285" gradientUnits="userSpaceOnUse">
      <stop stop-color="#002B75"/>
      <stop offset="1" stop-color="#0075F8"/>
    </linearGradient>
    <linearGradient id="paint12_linear_86_15943" x1="37.2045" y1="1.18218" x2="4.79048" y2="1.53505" gradientUnits="userSpaceOnUse">
      <stop stop-color="#002B75"/>
      <stop offset="1" stop-color="#0075F8"/>
    </linearGradient>
  </defs>
</svg>