<svg xmlns="http://www.w3.org/2000/svg" width="102" height="66" viewBox="0 0 102 66" fill="none">
  <path d="M101.004 9.61377C101.004 7.32926 100.116 5.13831 98.5374 3.52291C96.9584 1.90752 94.8169 1 92.5838 1H9.43244C7.19939 1 5.05778 1.90752 3.47877 3.52291C1.89977 5.13831 1.0127 7.32926 1.0127 9.61377V56.3862C1.0127 58.6707 1.89977 60.8617 3.47877 62.4771C5.05778 64.0925 7.19939 65 9.43244 65H92.5838C94.8169 65 96.9584 64.0925 98.5374 62.4771C100.116 60.8617 101.004 58.6707 101.004 56.3862V9.61377Z" stroke="#979A9D" stroke-width="2"/>
  <path d="M33.8107 32.9366C33.862 36.4094 33.8569 40.197 33.7953 44.2992C33.7919 44.649 33.9612 44.8238 34.303 44.8238L40.5024 44.8133C40.5732 44.8133 40.641 44.7846 40.691 44.7334C40.741 44.6823 40.7691 44.6129 40.7691 44.5406L40.7537 22.8697C40.7537 22.6424 40.6443 22.5288 40.4255 22.5288C38.3231 22.5288 36.243 22.5375 34.1851 22.555C31.9494 22.5725 30.5375 23.6409 29.9495 25.7602C29.0334 29.0442 28.1292 32.2739 27.237 35.4494C27.2256 35.4897 27.2053 35.5268 27.1777 35.5577C27.15 35.5887 27.1158 35.6127 27.0776 35.628C27.0394 35.6432 26.9983 35.6492 26.9575 35.6455C26.9166 35.6418 26.8772 35.6286 26.8421 35.6068C26.7157 35.5263 26.6319 35.4127 26.5909 35.2658C25.726 32.2092 24.8474 29.0721 23.9552 25.8547C23.3501 23.6654 21.9281 22.5585 19.689 22.534C17.672 22.513 15.662 22.5165 13.6587 22.5445C13.4468 22.548 13.3408 22.6582 13.3408 22.875V44.4881C13.3408 44.7014 13.4451 44.8081 13.6536 44.8081H19.8377C19.9034 44.8081 19.9666 44.7812 20.0135 44.7331C20.0605 44.685 20.0876 44.6197 20.0889 44.551C20.1094 40.6796 20.0804 36.4933 20.0017 31.9924C19.9949 31.7755 20.0992 31.6759 20.3145 31.6933C20.3754 31.6992 20.4333 31.7238 20.4808 31.764C20.5283 31.8042 20.5632 31.8581 20.5812 31.9189L24.2834 44.3307C24.3277 44.4805 24.4186 44.6115 24.5425 44.7041C24.6664 44.7968 24.8165 44.8462 24.9705 44.8448L28.8522 44.8186C29.0189 44.8172 29.1808 44.7616 29.3145 44.6597C29.4482 44.5578 29.5467 44.415 29.5957 44.252L33.0211 32.8212C33.5236 31.1495 33.7868 31.188 33.8107 32.9366Z" stroke="#9ED29B" stroke-width="2"/>
  <path d="M50.6173 34.8208L50.6275 22.9231C50.6275 22.8229 50.5886 22.7269 50.5194 22.656C50.4501 22.5852 50.3562 22.5454 50.2583 22.5454L44.0692 22.5349C44.02 22.5349 43.9713 22.5448 43.9259 22.5641C43.8805 22.5833 43.8392 22.6115 43.8045 22.6471C43.7697 22.6826 43.7421 22.7248 43.7233 22.7713C43.7045 22.8178 43.6948 22.8676 43.6948 22.9179L43.6846 44.6516C43.6846 44.692 43.6997 44.7307 43.7266 44.7592C43.7535 44.7877 43.7901 44.8038 43.8281 44.8038C45.9032 44.8387 47.8603 44.8282 49.6994 44.7723C51.2924 44.7268 52.4393 43.9434 53.1401 42.4221C54.8083 38.785 56.3962 35.2702 57.9038 31.8779C57.9275 31.8263 57.9631 31.782 58.007 31.7489C58.051 31.7159 58.1019 31.6952 58.155 31.689C58.3772 31.661 58.4884 31.7065 58.4884 31.8254C58.4405 36.3019 58.4302 40.5458 58.4576 44.5572C58.4576 44.6254 58.4835 44.6908 58.5297 44.739C58.5758 44.7872 58.6384 44.8142 58.7037 44.8142H64.9852C65.0899 44.8142 65.1903 44.7717 65.2644 44.6959C65.3384 44.6202 65.38 44.5174 65.38 44.4103L65.3851 22.8654C65.3851 22.6381 65.2758 22.5244 65.057 22.5244C63.4059 22.5349 61.6641 22.5437 59.8318 22.5506C57.9346 22.5576 56.6219 23.3568 55.8937 24.948C54.4272 28.162 52.9196 31.5089 51.371 34.9887C50.8685 36.1183 50.6173 36.0623 50.6173 34.8208Z" stroke="#9ED29B" stroke-width="2"/>
  <path d="M67.4127 22.9073C67.8793 26.5112 70.8893 29.643 73.9865 30.902C75.4735 31.5071 77.4186 31.7816 79.8218 31.7256C83.2301 31.6487 86.4759 31.6452 89.5594 31.7152C89.8089 31.7187 89.9474 31.5928 89.9747 31.3374C90.2653 28.5396 89.5013 26.2909 87.6826 24.5912C86.2537 23.2588 84.6812 22.5855 82.9651 22.5715C78.0801 22.5261 72.9951 22.5191 67.7101 22.5506C67.4811 22.5541 67.3819 22.673 67.4127 22.9073Z" stroke="#90C4E5" stroke-width="2"/>
  <path d="M75.6059 37.7108C78.0775 37.7528 80.3747 37.7563 82.4976 37.7213C85.7315 37.6724 88.0595 36.1388 89.4816 33.1207C89.5017 33.0789 89.511 33.0326 89.5087 32.9862C89.5064 32.9397 89.4925 32.8946 89.4684 32.8552C89.4442 32.8157 89.4106 32.7833 89.3707 32.7609C89.3308 32.7385 89.286 32.7269 89.2405 32.7272L68.6886 32.6328C68.4424 32.6328 68.3177 32.7587 68.3143 33.0105L68.2784 44.499C68.2777 44.5415 68.2854 44.5837 68.3011 44.6231C68.3168 44.6625 68.3401 44.6984 68.3697 44.7287C68.3992 44.759 68.4345 44.783 68.4734 44.7994C68.5123 44.8158 68.5541 44.8243 68.5963 44.8243L74.9854 44.8086C75.0548 44.8086 75.1213 44.7798 75.1704 44.7287C75.2194 44.6775 75.247 44.6081 75.247 44.5358L75.2264 38.0938C75.2264 37.835 75.3529 37.7073 75.6059 37.7108Z" stroke="#9ED29B" stroke-width="2"/>
  <path d="M101.005 56.3862C101.005 58.6707 100.118 60.8617 98.5394 62.4771C96.9604 64.0925 94.8188 65 92.5858 65H9.4344C7.20134 65 5.05974 64.0925 3.48073 62.4771C1.90172 60.8617 1.01465 58.6707 1.01465 56.3862V9.61377C1.01465 7.32926 1.90172 5.13831 3.48073 3.52291C5.05974 1.90752 7.20134 1 9.4344 1H92.5858C94.8188 1 96.9604 1.90752 98.5394 3.52291C100.118 5.13831 101.005 7.32926 101.005 9.61377V56.3862ZM33.8116 32.937C33.8629 36.4098 33.8578 40.1974 33.7963 44.2997C33.7928 44.6494 33.9621 44.8243 34.3039 44.8243L40.5033 44.8138C40.5741 44.8138 40.6419 44.785 40.6919 44.7339C40.7419 44.6827 40.77 44.6133 40.77 44.541L40.7546 22.8702C40.7546 22.6428 40.6452 22.5292 40.4264 22.5292C38.324 22.5292 36.2439 22.5379 34.186 22.5554C31.9503 22.5729 30.5384 23.6413 29.9505 25.7607C29.0343 29.0446 28.1301 32.2743 27.2379 35.4498C27.2265 35.4901 27.2062 35.5272 27.1786 35.5582C27.1509 35.5891 27.1167 35.6132 27.0785 35.6284C27.0403 35.6436 26.9992 35.6496 26.9584 35.6459C26.9175 35.6423 26.8781 35.629 26.843 35.6072C26.7166 35.5268 26.6328 35.4131 26.5918 35.2662C25.7269 32.2096 24.8484 29.0726 23.9561 25.8551C23.3511 23.6658 21.929 22.5589 19.6899 22.5344C17.673 22.5134 15.6629 22.5169 13.6596 22.5449C13.4477 22.5484 13.3417 22.6586 13.3417 22.8754V44.4885C13.3417 44.7019 13.446 44.8085 13.6545 44.8085H19.8386C19.9043 44.8085 19.9675 44.7816 20.0144 44.7335C20.0614 44.6855 20.0885 44.6201 20.0898 44.5515C20.1103 40.68 20.0813 36.4938 20.0027 31.9928C19.9958 31.776 20.1001 31.6763 20.3155 31.6938C20.3763 31.6997 20.4342 31.7243 20.4817 31.7644C20.5292 31.8046 20.5641 31.8585 20.5821 31.9193L24.2843 44.3311C24.3286 44.4809 24.4195 44.6119 24.5434 44.7046C24.6673 44.7972 24.8174 44.8466 24.9714 44.8452L28.8531 44.819C29.0198 44.8176 29.1817 44.762 29.3154 44.6601C29.4491 44.5582 29.5476 44.4155 29.5966 44.2525L33.022 32.8216C33.5245 31.1499 33.7877 31.1884 33.8116 32.937ZM50.6204 34.8203L50.6306 22.9226C50.6306 22.8224 50.5917 22.7264 50.5225 22.6555C50.4532 22.5847 50.3593 22.5449 50.2614 22.5449L44.0722 22.5344C44.0231 22.5344 43.9744 22.5443 43.929 22.5636C43.8836 22.5828 43.8423 22.611 43.8076 22.6466C43.7728 22.6821 43.7452 22.7244 43.7264 22.7708C43.7076 22.8173 43.6979 22.8671 43.6979 22.9174L43.6877 44.6511C43.6877 44.6915 43.7028 44.7302 43.7297 44.7587C43.7566 44.7873 43.7932 44.8033 43.8312 44.8033C45.9063 44.8382 47.8634 44.8278 49.7025 44.7718C51.2955 44.7263 52.4424 43.9429 53.1432 42.4216C54.8114 38.7845 56.3993 35.2697 57.9069 31.8774C57.9306 31.8259 57.9662 31.7815 58.0101 31.7484C58.0541 31.7154 58.105 31.6948 58.1581 31.6885C58.3803 31.6605 58.4914 31.706 58.4914 31.8249C58.4436 36.3014 58.4333 40.5454 58.4607 44.5567C58.4607 44.6249 58.4866 44.6903 58.5328 44.7385C58.5789 44.7867 58.6415 44.8138 58.7068 44.8138H64.9883C65.093 44.8138 65.1934 44.7712 65.2674 44.6955C65.3415 44.6197 65.3831 44.517 65.3831 44.4098L65.3882 22.8649C65.3882 22.6376 65.2789 22.5239 65.0601 22.5239C63.4089 22.5344 61.6672 22.5432 59.8349 22.5502C57.9376 22.5572 56.625 23.3563 55.8968 24.9475C54.4303 28.1615 52.9227 31.5084 51.3741 34.9882C50.8716 36.1178 50.6204 36.0619 50.6204 34.8203ZM67.4137 22.9069C67.8803 26.5108 70.8903 29.6426 73.9874 30.9016C75.4745 31.5067 77.4196 31.7812 79.8228 31.7252C83.231 31.6483 86.4769 31.6448 89.5604 31.7148C89.8099 31.7182 89.9484 31.5923 89.9757 31.337C90.2663 28.5392 89.5023 26.2905 87.6836 24.5908C86.2547 23.2584 84.6822 22.5851 82.9661 22.5711C78.0811 22.5257 72.9961 22.5187 67.7111 22.5502C67.4821 22.5537 67.3829 22.6726 67.4137 22.9069ZM75.6078 37.7108C78.0794 37.7528 80.3766 37.7563 82.4995 37.7213C85.7334 37.6723 88.0614 36.1388 89.4835 33.1207C89.5036 33.0789 89.5129 33.0326 89.5106 32.9861C89.5083 32.9397 89.4944 32.8946 89.4703 32.8551C89.4461 32.8157 89.4125 32.7833 89.3726 32.7609C89.3327 32.7385 89.2879 32.7269 89.2425 32.7272L68.6905 32.6328C68.4444 32.6328 68.3196 32.7587 68.3162 33.0105L68.2803 44.499C68.2796 44.5415 68.2873 44.5836 68.303 44.6231C68.3187 44.6625 68.342 44.6984 68.3716 44.7287C68.4012 44.7589 68.4364 44.783 68.4753 44.7994C68.5143 44.8158 68.556 44.8243 68.5982 44.8243L74.9874 44.8085C75.0567 44.8085 75.1232 44.7798 75.1723 44.7286C75.2213 44.6775 75.2489 44.6081 75.2489 44.5357L75.2283 38.0938C75.2283 37.835 75.3548 37.7073 75.6078 37.7108Z" fill="white"/>
  <path d="M33.8107 32.9366C33.7868 31.188 33.5236 31.1495 33.0211 32.8212L29.5957 44.252C29.5467 44.415 29.4482 44.5578 29.3145 44.6597C29.1808 44.7616 29.0189 44.8172 28.8522 44.8186L24.9705 44.8448C24.8165 44.8462 24.6664 44.7968 24.5425 44.7041C24.4186 44.6115 24.3277 44.4805 24.2834 44.3307L20.5812 31.9189C20.5632 31.8581 20.5283 31.8042 20.4808 31.764C20.4333 31.7238 20.3754 31.6992 20.3145 31.6933C20.0992 31.6759 19.9949 31.7755 20.0017 31.9924C20.0804 36.4933 20.1094 40.6796 20.0889 44.551C20.0876 44.6197 20.0605 44.685 20.0135 44.7331C19.9666 44.7812 19.9034 44.8081 19.8377 44.8081H13.6536C13.4451 44.8081 13.3408 44.7014 13.3408 44.4881V22.875C13.3408 22.6582 13.4468 22.548 13.6587 22.5445C15.662 22.5165 17.672 22.513 19.689 22.534C21.9281 22.5585 23.3502 23.6654 23.9552 25.8547C24.8474 29.0721 25.726 32.2092 26.5909 35.2658C26.6319 35.4127 26.7157 35.5263 26.8421 35.6068C26.8772 35.6286 26.9166 35.6418 26.9575 35.6455C26.9983 35.6492 27.0394 35.6432 27.0776 35.628C27.1158 35.6127 27.15 35.5887 27.1777 35.5577C27.2053 35.5268 27.2256 35.4897 27.237 35.4494C28.1292 32.2739 29.0334 29.0442 29.9495 25.7602C30.5375 23.6409 31.9494 22.5725 34.1851 22.555C36.243 22.5375 38.3231 22.5288 40.4255 22.5288C40.6443 22.5288 40.7537 22.6424 40.7537 22.8697L40.7691 44.5406C40.7691 44.6129 40.741 44.6823 40.691 44.7334C40.641 44.7846 40.5732 44.8133 40.5024 44.8133L34.303 44.8238C33.9612 44.8238 33.7919 44.649 33.7953 44.2992C33.8569 40.197 33.862 36.4094 33.8107 32.9366Z" fill="#3DA536"/>
  <path d="M50.6192 34.8189C50.6192 36.0604 50.8705 36.1163 51.373 34.9867C52.9216 31.5069 54.4291 28.1601 55.8957 24.9461C56.6238 23.3548 57.9365 22.5557 59.8338 22.5487C61.6661 22.5417 63.4078 22.533 65.0589 22.5225C65.2777 22.5225 65.3871 22.6361 65.3871 22.8634L65.382 44.4084C65.382 44.5155 65.3404 44.6182 65.2663 44.694C65.1923 44.7697 65.0919 44.8123 64.9871 44.8123H58.7057C58.6404 44.8123 58.5778 44.7852 58.5316 44.737C58.4855 44.6888 58.4595 44.6234 58.4595 44.5552C58.4322 40.5439 58.4424 36.2999 58.4903 31.8234C58.4903 31.7045 58.3792 31.6591 58.157 31.6871C58.1039 31.6933 58.053 31.7139 58.009 31.747C57.965 31.78 57.9295 31.8244 57.9057 31.8759C56.3982 35.2683 54.8103 38.783 53.1421 42.4202C52.4413 43.9415 51.2944 44.7249 49.7014 44.7703C47.8622 44.8263 45.9051 44.8368 43.8301 44.8018C43.792 44.8018 43.7555 44.7858 43.7286 44.7572C43.7016 44.7287 43.6865 44.69 43.6865 44.6497L43.6968 22.9159C43.6968 22.8656 43.7065 22.8158 43.7253 22.7694C43.7441 22.7229 43.7717 22.6807 43.8064 22.6451C43.8412 22.6096 43.8824 22.5813 43.9279 22.5621C43.9733 22.5429 44.0219 22.533 44.0711 22.533L50.2603 22.5434C50.3582 22.5434 50.4521 22.5832 50.5213 22.6541C50.5906 22.7249 50.6295 22.821 50.6295 22.9212L50.6192 34.8189Z" fill="#3DA536"/>
  <path d="M73.9845 30.903C70.8873 29.644 67.8774 26.5122 67.4107 22.9083C67.38 22.6739 67.4791 22.555 67.7082 22.5515C72.9931 22.5201 78.0781 22.5271 82.9632 22.5725C84.6793 22.5865 86.2518 23.2597 87.6807 24.5922C89.4993 26.2919 90.2633 28.5406 89.9728 31.3384C89.9454 31.5937 89.807 31.7196 89.5574 31.7161C86.474 31.6462 83.2281 31.6497 79.8199 31.7266C77.4167 31.7826 75.4715 31.508 73.9845 30.903Z" fill="#2188CB"/>
  <path d="M75.2284 38.0938L75.2489 44.5358C75.2489 44.6081 75.2213 44.6775 75.1723 44.7287C75.1233 44.7798 75.0568 44.8086 74.9874 44.8086L68.5982 44.8243C68.556 44.8243 68.5143 44.8158 68.4754 44.7994C68.4365 44.783 68.4012 44.759 68.3716 44.7287C68.342 44.6984 68.3187 44.6625 68.303 44.6231C68.2874 44.5837 68.2796 44.5415 68.2803 44.499L68.3162 33.0105C68.3196 32.7587 68.4444 32.6328 68.6905 32.6328L89.2425 32.7272C89.288 32.7269 89.3328 32.7385 89.3727 32.7609C89.4125 32.7833 89.4462 32.8157 89.4703 32.8552C89.4945 32.8946 89.5083 32.9397 89.5107 32.9862C89.513 33.0326 89.5036 33.0789 89.4835 33.1207C88.0614 36.1388 85.7334 37.6724 82.4995 37.7213C80.3766 37.7563 78.0794 37.7528 75.6078 37.7108C75.3549 37.7073 75.2284 37.835 75.2284 38.0938Z" fill="#3DA536"/>
</svg>