<svg xmlns="http://www.w3.org/2000/svg" width="102" height="66" viewBox="0 0 102 66" fill="none">
  <path d="M100.996 9.61902C100.996 7.33311 100.108 5.14083 98.5281 3.52445C96.9482 1.90807 94.8053 1 92.5709 1H9.42975C7.19533 1 5.05245 1.90807 3.47248 3.52445C1.89251 5.14083 1.00488 7.33311 1.00488 9.61902V56.381C1.00488 58.6669 1.89251 60.8592 3.47248 62.4755C5.05245 64.0919 7.19533 65 9.42975 65H92.5709C94.8053 65 96.9482 64.0919 98.5281 62.4755C100.108 60.8592 100.996 58.6669 100.996 56.381V9.61902Z" stroke="#979A9D" stroke-width="2"/>
  <path d="M29.1104 10.0391L28.9912 27.8489" stroke="#FDDB8D" stroke-width="2"/>
  <path d="M28.9919 27.8474L14.665 18.835" stroke="#90C4E5" stroke-width="2"/>
  <path d="M14.6656 18.835C14.4946 19.0798 14.4092 19.2546 14.4092 19.3596C14.4502 27.1829 14.4536 34.9993 14.4194 42.8087C14.4191 42.8873 14.4476 42.963 14.499 43.0205C14.5505 43.078 14.621 43.1129 14.6963 43.1182C14.963 43.1392 15.1749 43.0186 15.3322 42.7563" stroke="#ADACD1" stroke-width="2"/>
  <path d="M15.3311 42.7572L28.8375 34.3848" stroke="#CBA4CA" stroke-width="2"/>
  <path d="M28.8389 34.3848C28.9771 34.4337 29.0444 34.5404 29.041 34.7048C29.0064 40.4018 28.9978 46.1618 29.0151 51.9848" stroke="#9ED29B" stroke-width="2"/>
  <path d="M29.0113 51.9855C28.9806 52.1953 28.9771 52.3579 29.0011 52.4733C29.0421 52.6762 29.1498 52.7234 29.3241 52.615L48.9582 40.2871" stroke="#81BF9B" stroke-width="2"/>
  <path d="M48.96 40.2857L34.3818 31.2051" stroke="#90C4E5" stroke-width="2"/>
  <path d="M34.3818 31.2056C34.3957 30.9678 34.425 30.8384 34.4699 30.8174" stroke="#FDDB8D" stroke-width="2"/>
  <path d="M34.4697 30.8184L48.5402 22.0315C48.607 21.99 48.6567 21.9251 48.6803 21.8489C48.7039 21.7727 48.6997 21.6903 48.6684 21.6171C48.6342 21.5401 48.571 21.4754 48.4787 21.423" stroke="#ED84AA" stroke-width="2"/>
  <path d="M48.4784 21.4222L29.357 9.4668C29.1861 9.35838 29.0767 9.4056 29.0289 9.60844C29.005 9.72735 29.0323 9.87073 29.1109 10.0386" stroke="#FFAF80" stroke-width="2"/>
  <path d="M48.4788 21.423C45.1765 21.7902 41.9853 21.8794 38.9053 21.6905" stroke="#ED342B" stroke-width="2"/>
  <path d="M38.9038 21.6902L34.2119 18.7158" stroke="#FFAF80" stroke-width="2"/>
  <path d="M34.2125 18.7158C32.7904 16.1453 31.3341 13.4751 29.8436 10.7053C29.7308 10.499 29.4864 10.2769 29.1104 10.0391" stroke="#FD8B0E" stroke-width="2"/>
  <path d="M38.9045 21.6895L34.2998 24.6009" stroke="#ED84AA" stroke-width="2"/>
  <path d="M34.2119 18.7158L34.3 24.6017" stroke="#FDDB8D" stroke-width="2"/>
  <path d="M34.2988 24.6006C34.1408 26.4996 34.115 28.4808 34.2216 30.5442C34.2284 30.6211 34.2507 30.6788 34.2885 30.7173C34.3366 30.7628 34.3968 30.796 34.4689 30.817" stroke="#EB6038" stroke-width="2"/>
  <path d="M34.3805 31.207L28.9912 27.8496" stroke="#8E9F73" stroke-width="2"/>
  <path d="M48.96 40.2861L38.8994 40.3639" stroke="#128481" stroke-width="2"/>
  <path d="M38.8982 40.3643L34.2627 37.4004" stroke="#90C4E5" stroke-width="2"/>
  <path d="M34.2635 37.4011L29.0947 34.2588" stroke="#2F9781" stroke-width="2"/>
  <path d="M29.0926 34.2598C28.9149 33.9206 28.7422 33.709 28.5747 33.6251C27.0808 32.8697 25.6536 32.0006 24.293 31.0179C24.2383 30.9829 24.1751 30.9584 24.1033 30.9444C24.0213 30.9269 23.9546 30.9077 23.9033 30.8867" stroke="#5C69B0" stroke-width="2"/>
  <path d="M23.9047 30.8865L19.6846 28.3213" stroke="#90C4E5" stroke-width="2"/>
  <path d="M14.6668 18.835L14.6514 19.5536C14.6514 19.7145 14.6924 19.8649 14.7744 20.0048L19.6868 28.3196" stroke="#3E70B7" stroke-width="2"/>
  <path d="M19.6863 28.3213L19.6396 33.7036" stroke="#ADACD1" stroke-width="2"/>
  <path d="M19.6374 33.7031C18.3965 36.0988 17.094 38.4874 15.73 40.869C15.4497 41.3551 15.3164 41.9847 15.3301 42.7576" stroke="#79519C" stroke-width="2"/>
  <path d="M29.0965 34.2588L28.8389 34.3847" stroke="#6A7766" stroke-width="2"/>
  <path d="M38.8984 40.3643L34.3604 43.2338" stroke="#81BF9B" stroke-width="2"/>
  <path d="M23.9059 30.8867L23.8803 31.0441C23.87 31.1001 23.8427 31.1403 23.7982 31.1648L19.6396 33.7038" stroke="#CBA4CA" stroke-width="2"/>
  <path d="M34.2627 37.4004L34.3612 43.2338" stroke="#9ED29B" stroke-width="2"/>
  <path d="M34.3609 43.2354C33.0824 45.3197 31.6996 47.8447 30.2126 50.8104C29.8947 51.4399 29.4947 51.8316 29.0127 51.9855" stroke="#209237" stroke-width="2"/>
  <path d="M69.081 27.2807C68.5169 27.6654 68.3921 27.5517 68.7066 26.9397C70.1424 24.1279 72.5114 24.8361 75.0137 24.7207C75.277 24.7102 75.4701 24.5861 75.5932 24.3482L76.8905 21.8407C77.0443 21.5469 76.9589 21.4088 76.6341 21.4263C75.2564 21.5032 73.86 21.5399 72.4447 21.5364C70.9474 21.5364 69.7954 21.7375 68.9887 22.1397C65.4454 23.9128 64.4762 27.7214 65.0352 31.5456C66.1633 39.2886 78.1211 38.061 77.0853 30.5069C76.5315 26.4833 71.9935 25.282 69.081 27.2807Z" stroke="#8D8A9B" stroke-width="2"/>
  <path d="M57.5143 32.6897C56.0273 31.2314 56.8836 28.7973 58.8373 28.451C59.7944 28.2797 60.7003 28.4091 61.555 28.8392C61.8831 29.0071 62.1395 28.9267 62.3241 28.5979L63.3958 26.6779C63.4393 26.5993 63.4658 26.512 63.4734 26.422C63.481 26.332 63.4696 26.2413 63.4399 26.1562C63.4102 26.0711 63.363 25.9936 63.3014 25.9288C63.2398 25.864 63.1653 25.8136 63.083 25.7809C60.0371 24.5796 56.2939 24.952 54.2736 27.832C52.6378 30.1612 53.207 33.6288 55.494 35.3179C57.6784 36.9372 60.2371 37.1085 63.1702 35.832C63.4129 35.7271 63.4693 35.5575 63.3394 35.3232L62.1241 33.1881C62.0318 33.0272 61.9019 32.9783 61.7344 33.0412C60.2012 33.6025 58.6783 33.8333 57.5143 32.6897Z" stroke="#8D8A9B" stroke-width="2"/>
  <path d="M82.6376 28.9195C82.6376 28.8527 82.6635 28.7887 82.7096 28.7415C82.7558 28.6943 82.8184 28.6677 82.8837 28.6677L85.8834 28.6782C85.9487 28.6782 86.0113 28.7047 86.0574 28.752C86.1036 28.7992 86.1295 28.8632 86.1295 28.93L86.109 36.0749C86.109 36.1417 86.135 36.2058 86.1811 36.253C86.2273 36.3002 86.2899 36.3267 86.3552 36.3267L89.7241 36.3215C89.7894 36.3215 89.852 36.295 89.8981 36.2477C89.9443 36.2005 89.9702 36.1365 89.9702 36.0697V25.6356C89.9702 25.6025 89.9638 25.5698 89.9515 25.5392C89.9391 25.5087 89.921 25.4809 89.8981 25.4575C89.8753 25.4342 89.8481 25.4156 89.8183 25.403C89.7884 25.3903 89.7564 25.3838 89.7241 25.3838L79.0635 25.389C78.9982 25.389 78.9356 25.4156 78.8895 25.4628C78.8433 25.51 78.8174 25.5741 78.8174 25.6408V36.0749C78.8174 36.1417 78.8433 36.2058 78.8895 36.253C78.9356 36.3002 78.9982 36.3267 79.0635 36.3267L82.4171 36.3215C82.4823 36.3215 82.5449 36.295 82.5911 36.2477C82.6373 36.2005 82.6632 36.1365 82.6632 36.0697L82.6376 28.9195Z" stroke="#8D8A9B" stroke-width="2"/>
  <path d="M73.2556 31.4567C73.2556 30.8668 73.0265 30.301 72.6188 29.8839C72.211 29.4668 71.658 29.2324 71.0814 29.2324C70.5048 29.2324 69.9518 29.4668 69.544 29.8839C69.1363 30.301 68.9072 30.8668 68.9072 31.4567C68.9072 32.0466 69.1363 32.6123 69.544 33.0295C69.9518 33.4466 70.5048 33.6809 71.0814 33.6809C71.658 33.6809 72.211 33.4466 72.6188 33.0295C73.0265 32.6123 73.2556 32.0466 73.2556 31.4567Z" stroke="#8D8A9B" stroke-width="2"/>
  <path d="M100.998 56.381C100.998 58.6669 100.11 60.8592 98.5301 62.4755C96.9501 64.0919 94.8072 65 92.5728 65H9.4317C7.19729 65 5.0544 64.0919 3.47443 62.4755C1.89446 60.8592 1.00684 58.6669 1.00684 56.381V9.61902C1.00684 7.33311 1.89446 5.14083 3.47443 3.52445C5.0544 1.90807 7.19729 1 9.4317 1H92.5728C94.8072 1 96.9501 1.90807 98.5301 3.52445C100.11 5.14083 100.998 7.33311 100.998 9.61902V56.381ZM29.112 10.0387L28.994 27.8485L14.6671 18.8361C14.4962 19.0809 14.4107 19.2557 14.4107 19.3607C14.4518 27.184 14.4552 35.0004 14.421 42.8098C14.4207 42.8884 14.4492 42.9641 14.5006 43.0216C14.552 43.0791 14.6226 43.114 14.6979 43.1193C14.9645 43.1403 15.1765 43.0197 15.3337 42.7574L28.8402 34.3849C28.9769 34.4339 29.0436 34.5405 29.0402 34.7049C29.006 40.402 28.9974 46.162 29.0145 51.9849C28.9838 52.1948 28.9803 52.3574 29.0043 52.4728C29.0453 52.6756 29.153 52.7228 29.3273 52.6144L48.9614 40.2866L34.3833 31.2059C34.397 30.9681 34.426 30.8387 34.4704 30.8177L48.5409 22.0308C48.6077 21.9893 48.6574 21.9244 48.681 21.8482C48.7046 21.772 48.7004 21.6897 48.6691 21.6164C48.635 21.5395 48.5717 21.4748 48.4794 21.4223L29.3581 9.46688C29.1871 9.35847 29.0778 9.40568 29.0299 9.60852C29.006 9.72743 29.0333 9.87082 29.112 10.0387ZM69.0826 27.282C68.5186 27.6667 68.3938 27.553 68.7083 26.941C70.1441 24.1292 72.5131 24.8374 75.0154 24.722C75.2787 24.7115 75.4718 24.5873 75.5949 24.3495L76.8922 21.842C77.046 21.5482 76.9606 21.4101 76.6358 21.4275C75.2581 21.5045 73.8617 21.5412 72.4464 21.5377C70.9492 21.5377 69.7971 21.7388 68.9904 22.141C65.4471 23.9141 64.4779 27.7226 65.0369 31.5469C66.165 39.2898 78.1228 38.0623 77.087 30.5082C76.5332 26.4846 71.9952 25.2833 69.0826 27.282ZM57.5145 32.6905C56.0274 31.2321 56.8838 28.798 58.8374 28.4518C59.7946 28.2804 60.7005 28.4098 61.5551 28.84C61.8833 29.0079 62.1397 28.9274 62.3243 28.5987L63.396 26.6787C63.4395 26.6001 63.466 26.5128 63.4736 26.4228C63.4812 26.3327 63.4698 26.2421 63.4401 26.157C63.4104 26.0719 63.3632 25.9943 63.3016 25.9295C63.24 25.8648 63.1655 25.8143 63.0832 25.7816C60.0373 24.5803 56.2941 24.9528 54.2738 27.8328C52.638 30.162 53.2072 33.6295 55.4942 35.3187C57.6786 36.9379 60.2373 37.1093 63.1704 35.8328C63.4131 35.7279 63.4695 35.5583 63.3396 35.3239L62.1243 33.1889C62.032 33.028 61.9021 32.979 61.7346 33.042C60.2014 33.6033 58.6785 33.8341 57.5145 32.6905ZM82.6404 28.9187C82.6404 28.8519 82.6663 28.7879 82.7125 28.7406C82.7586 28.6934 82.8212 28.6669 82.8865 28.6669L85.8863 28.6774C85.9515 28.6774 86.0141 28.7039 86.0603 28.7511C86.1064 28.7983 86.1324 28.8624 86.1324 28.9292L86.1118 36.0741C86.1118 36.1409 86.1378 36.2049 86.184 36.2521C86.2301 36.2994 86.2927 36.3259 86.358 36.3259L89.7269 36.3207C89.7922 36.3207 89.8548 36.2941 89.901 36.2469C89.9471 36.1997 89.973 36.1356 89.973 36.0689V25.6348C89.973 25.6017 89.9667 25.5689 89.9543 25.5384C89.9419 25.5078 89.9238 25.4801 89.901 25.4567C89.8781 25.4333 89.851 25.4148 89.8211 25.4021C89.7912 25.3895 89.7592 25.3829 89.7269 25.3829L79.0663 25.3882C79.0011 25.3882 78.9385 25.4147 78.8923 25.4619C78.8461 25.5092 78.8202 25.5732 78.8202 25.64V36.0741C78.8202 36.1409 78.8461 36.2049 78.8923 36.2521C78.9385 36.2994 79.0011 36.3259 79.0663 36.3259L82.4199 36.3207C82.4852 36.3207 82.5478 36.2941 82.5939 36.2469C82.6401 36.1997 82.666 36.1356 82.666 36.0689L82.6404 28.9187Z" fill="white"/>
  <path d="M48.4784 21.4222C45.1761 21.7894 41.9849 21.8786 38.9049 21.6897L34.213 18.7153C32.7909 16.1448 31.3346 13.4747 29.8442 10.7048C29.7314 10.4985 29.4869 10.2764 29.1109 10.0386C29.0323 9.87073 29.005 9.72735 29.0289 9.60844C29.0767 9.4056 29.1861 9.35838 29.357 9.4668L48.4784 21.4222Z" fill="#FF5F01"/>
  <path d="M29.1091 10.0399C29.4852 10.2777 29.7296 10.4998 29.8424 10.7061C31.3329 13.476 32.7892 16.1461 34.2112 18.7166L34.2984 24.6025C34.1412 26.5016 34.1155 28.4828 34.2215 30.5461C34.2283 30.6231 34.2505 30.6808 34.2881 30.7193C34.336 30.7647 34.3958 30.7979 34.4676 30.8189C34.4232 30.8399 34.3941 30.9693 34.3805 31.2071L28.9912 27.8498L29.1091 10.0399Z" fill="#FBB61B"/>
  <path d="M34.2119 18.7168L38.9038 21.6912L34.2991 24.6027L34.2119 18.7168Z" fill="white"/>
  <path d="M14.6656 18.8359L14.6502 19.5546C14.6502 19.7155 14.6912 19.8659 14.7732 20.0058L19.6856 28.3205L19.6395 33.7028C18.3986 36.0984 17.0961 38.4871 15.7321 40.8687C15.4518 41.3548 15.3185 41.9844 15.3322 42.7572C15.1749 43.0195 14.963 43.1402 14.6963 43.1192C14.621 43.1139 14.5505 43.0789 14.499 43.0215C14.4476 42.964 14.4191 42.8883 14.4194 42.8097C14.4536 35.0003 14.4502 27.1839 14.4092 19.3605C14.4092 19.2556 14.4946 19.0807 14.6656 18.8359Z" fill="#5A58A3"/>
  <path d="M14.6648 18.8359L28.9917 27.8484L34.381 31.2058L48.9591 40.2864L38.8985 40.3651L34.263 37.4012L29.0943 34.2589C28.9165 33.9197 28.7439 33.7081 28.5764 33.6241C27.0825 32.8687 25.6552 31.9997 24.2947 31.0169C24.24 30.9819 24.1767 30.9575 24.105 30.9435C24.0229 30.926 23.9562 30.9068 23.905 30.8858L19.6849 28.3205L14.7725 20.0058C14.6904 19.8659 14.6494 19.7155 14.6494 19.5546L14.6648 18.8359Z" fill="#2188CB"/>
  <path d="M48.4783 21.4236C48.5706 21.476 48.6338 21.5407 48.668 21.6177C48.6992 21.6909 48.7034 21.7733 48.6799 21.8495C48.6563 21.9257 48.6065 21.9906 48.5398 22.0321L34.4693 30.819C34.3975 30.798 34.3377 30.7648 34.2898 30.7193C34.2522 30.6809 34.23 30.6231 34.2232 30.5462C34.1172 28.4828 34.1428 26.5016 34.3001 24.6026L38.9048 21.6911C41.9848 21.88 45.176 21.7908 48.4783 21.4236Z" fill="#DB0954"/>
  <path d="M69.081 27.2814C71.9935 25.2827 76.5315 26.4841 77.0853 30.5077C78.1211 38.0618 66.1633 39.2893 65.0352 31.5464C64.4762 27.7221 65.4454 23.9136 68.9887 22.1405C69.7954 21.7383 70.9474 21.5372 72.4447 21.5372C73.86 21.5407 75.2564 21.504 76.6341 21.427C76.9589 21.4095 77.0443 21.5477 76.8905 21.8414L75.5932 24.349C75.4701 24.5868 75.277 24.7109 75.0137 24.7214C72.5114 24.8368 70.1424 24.1287 68.7066 26.9405C68.3921 27.5525 68.5169 27.6661 69.081 27.2814ZM73.2549 31.4572C73.2549 30.8673 73.0259 30.3015 72.6181 29.8844C72.2104 29.4673 71.6574 29.2329 71.0807 29.2329C70.5041 29.2329 69.9511 29.4673 69.5434 29.8844C69.1357 30.3015 68.9066 30.8673 68.9066 31.4572C68.9066 32.0471 69.1357 32.6128 69.5434 33.03C69.9511 33.4471 70.5041 33.6814 71.0807 33.6814C71.6574 33.6814 72.2104 33.4471 72.6181 33.03C73.0259 32.6128 73.2549 32.0471 73.2549 31.4572Z" fill="#1A1437"/>
  <path d="M57.5123 32.6896C58.6763 33.8332 60.1993 33.6024 61.7325 33.0411C61.9 32.9781 62.0299 33.0271 62.1222 33.188L63.3374 35.3231C63.4673 35.5574 63.4109 35.727 63.1682 35.8319C60.2352 37.1084 57.6764 36.937 55.492 35.3178C53.205 33.6286 52.6359 30.1611 54.2716 27.8319C56.2919 24.9519 60.0352 24.5795 63.0811 25.7808C63.1634 25.8135 63.2379 25.8639 63.2995 25.9287C63.3611 25.9934 63.4083 26.071 63.438 26.1561C63.4676 26.2412 63.4791 26.3319 63.4715 26.4219C63.4638 26.5119 63.4374 26.5992 63.3938 26.6778L62.3222 28.5978C62.1376 28.9266 61.8812 29.007 61.553 28.8391C60.6984 28.409 59.7925 28.2796 58.8353 28.4509C56.8816 28.7972 56.0253 31.2313 57.5123 32.6896Z" fill="#1A1437"/>
  <path d="M82.6395 28.9195L82.6651 36.0697C82.6651 36.1365 82.6392 36.2005 82.5931 36.2477C82.5469 36.295 82.4843 36.3215 82.419 36.3215L79.0655 36.3267C79.0002 36.3267 78.9376 36.3002 78.8914 36.253C78.8453 36.2058 78.8193 36.1417 78.8193 36.0749V25.6408C78.8193 25.5741 78.8453 25.51 78.8914 25.4628C78.9376 25.4156 79.0002 25.389 79.0655 25.389L89.726 25.3838C89.7584 25.3838 89.7904 25.3903 89.8202 25.403C89.8501 25.4156 89.8772 25.4342 89.9001 25.4575C89.9229 25.4809 89.941 25.5087 89.9534 25.5392C89.9658 25.5698 89.9722 25.6025 89.9722 25.6356V36.0697C89.9722 36.1365 89.9462 36.2005 89.9001 36.2477C89.8539 36.295 89.7913 36.3215 89.726 36.3215L86.3571 36.3267C86.2918 36.3267 86.2292 36.3002 86.1831 36.253C86.1369 36.2058 86.111 36.1417 86.111 36.0749L86.1315 28.93C86.1315 28.8632 86.1055 28.7992 86.0594 28.752C86.0132 28.7047 85.9506 28.6782 85.8854 28.6782L82.8856 28.6677C82.8203 28.6677 82.7577 28.6943 82.7116 28.7415C82.6654 28.7887 82.6395 28.8527 82.6395 28.9195Z" fill="#1A1437"/>
  <path d="M19.6858 28.3204L23.9059 30.8857L23.8803 31.0431C23.87 31.099 23.8427 31.1392 23.7982 31.1637L19.6396 33.7027L19.6858 28.3204Z" fill="white"/>
  <path d="M71.0814 33.6819C72.2821 33.6819 73.2556 32.6861 73.2556 31.4577C73.2556 30.2292 72.2821 29.2334 71.0814 29.2334C69.8806 29.2334 68.9072 30.2292 68.9072 31.4577C68.9072 32.6861 69.8806 33.6819 71.0814 33.6819Z" fill="white"/>
  <path d="M23.9056 30.8867C23.9568 30.9077 24.0235 30.9269 24.1056 30.9444C24.1773 30.9584 24.2406 30.9829 24.2953 31.0179C25.6558 32.0006 27.0831 32.8697 28.577 33.6251C28.7445 33.709 28.9171 33.9206 29.0949 34.2598L28.8385 34.3857L15.332 42.7582C15.3183 41.9853 15.4516 41.3558 15.732 40.8697C17.0959 38.488 18.3984 36.0994 19.6393 33.7038L23.7979 31.1648C23.8423 31.1403 23.8697 31.1001 23.8799 31.0441L23.9056 30.8867Z" fill="#974995"/>
  <path d="M29.0953 34.2588L34.264 37.4011L34.3614 43.2345C33.0829 45.3189 31.7001 47.8439 30.2131 50.8096C29.8952 51.4391 29.4952 51.8308 29.0132 51.9847C28.9961 46.1617 29.0046 40.4017 29.0388 34.7047C29.0422 34.5403 28.9756 34.4337 28.8389 34.3847L29.0953 34.2588Z" fill="#3DA536"/>
  <path d="M34.2607 37.4004L38.8962 40.3643L34.3582 43.2338L34.2607 37.4004Z" fill="white"/>
  <path d="M48.9602 40.2871L29.3261 52.615C29.1517 52.7234 29.044 52.6762 29.003 52.4733C28.9791 52.3579 28.9825 52.1953 29.0133 51.9855C29.4953 51.8316 29.8953 51.4399 30.2132 50.8104C31.7002 47.8447 33.083 45.3197 34.3615 43.2353L38.8996 40.3658L48.9602 40.2871Z" fill="#037F37"/>
</svg>