<svg xmlns="http://www.w3.org/2000/svg" width="103" height="66" viewBox="0 0 103 66" fill="none">
  <path d="M101.012 9.62426C101.012 7.33697 100.124 5.14335 98.5432 3.52599C96.9623 1.90862 94.8181 1 92.5823 1H9.43097C7.19519 1 5.05099 1.90862 3.47006 3.52599C1.88913 5.14335 1.00098 7.33697 1.00098 9.62426V56.3757C1.00098 58.663 1.88913 60.8566 3.47006 62.474C5.05099 64.0914 7.19519 65 9.43097 65H92.5823C94.8181 65 96.9623 64.0914 98.5432 62.474C100.124 60.8566 101.012 58.663 101.012 56.3757V9.62426Z" stroke="#979A9D" stroke-width="2"/>
  <path d="M50.6279 45.417C58.3862 51.3868 68.575 49.3304 73.8104 41.0629C75.6462 38.1602 76.3572 34.7661 75.9436 30.8806C75.5231 26.9217 73.7711 23.5556 70.6876 20.7822C65.0318 15.6937 56.6479 15.5573 50.6997 20.158" stroke="#FBCF8D" stroke-width="2"/>
  <path d="M50.6998 20.1585C50.4868 20.1585 50.3717 20.1008 50.3545 19.9854" stroke="#FFAF80" stroke-width="2"/>
  <path d="M50.3569 19.9836C46.1556 16.9235 41.6688 16.0387 36.8966 17.3292C32.4047 18.5462 29.0187 21.379 26.7386 25.8276C25.7404 27.7755 25.2362 29.9841 25.2259 32.4531C25.2122 35.2824 25.6395 37.5784 26.5078 39.341C28.8734 44.1357 32.362 47.1207 36.9736 48.2958C41.8705 49.5443 46.6239 48.4636 50.6287 45.4157" stroke="#F5808D" stroke-width="2"/>
  <path d="M50.3548 19.9846C50.4437 20.1945 50.454 20.3308 50.3856 20.3938C45.316 24.9437 43.6033 30.6321 45.2476 37.4587C45.9587 40.4139 47.7397 43.0316 50.5907 45.3118" stroke="#F5300E" stroke-width="2"/>
  <path d="M50.5908 45.3125C50.6046 45.3475 50.6167 45.3824 50.6271 45.4174" stroke="#F1501B" stroke-width="2"/>
  <path d="M50.5908 45.3116C57.9799 39.4939 58.6978 28.6086 52.2112 21.7889C51.695 21.2434 51.1908 20.6995 50.6985 20.1575" stroke="#FB7F0E" stroke-width="2"/>
  <path d="M75.6003 40.8277C75.5046 40.6494 75.3781 40.6231 75.2208 40.749C75.1819 40.7803 75.1545 40.824 75.1433 40.8728C75.1321 40.9215 75.1377 40.9723 75.1593 41.0166C75.3165 41.3523 75.537 41.4975 75.8208 41.452C75.8752 41.4431 75.9267 41.4204 75.9703 41.3858C76.0139 41.3512 76.0482 41.3059 76.0702 41.2542C76.0922 41.2024 76.1011 41.1458 76.096 41.0896C76.091 41.0334 76.0721 40.9794 76.0413 40.9327C75.9387 40.7753 75.8071 40.7455 75.6464 40.8435C75.6382 40.8473 75.6289 40.8477 75.6204 40.8448C75.6118 40.8419 75.6046 40.8358 75.6003 40.8277Z" stroke="#FDDB8D" stroke-width="2"/>
  <path d="M101.012 56.3757C101.012 58.663 100.124 60.8566 98.5432 62.474C96.9623 64.0914 94.8181 65 92.5823 65H9.43097C7.19519 65 5.05099 64.0914 3.47006 62.474C1.88913 60.8566 1.00098 58.663 1.00098 56.3757V9.62426C1.00098 7.33697 1.88913 5.14335 3.47006 3.52599C5.05099 1.90862 7.19519 1 9.43097 1H92.5823C94.8181 1 96.9623 1.90862 98.5432 3.52599C100.124 5.14335 101.012 7.33697 101.012 9.62426V56.3757ZM50.6272 45.417C58.3855 51.3869 68.5743 49.3305 73.8097 41.063C75.6454 38.1602 76.3565 34.7661 75.9428 30.8807C75.5224 26.9217 73.7704 23.5556 70.6869 20.7823C65.031 15.6938 56.6472 15.5574 50.699 20.158C50.487 20.158 50.3725 20.1003 50.3554 19.9849C46.1541 16.9248 41.6673 16.04 36.8951 17.3305C32.4032 18.5475 29.0172 21.3803 26.7371 25.8289C25.7389 27.7768 25.2347 29.9854 25.2244 32.4544C25.2107 35.2837 25.638 37.5797 26.5063 39.3423C28.8719 44.137 32.3605 47.122 36.972 48.297C41.869 49.5456 46.6224 48.4649 50.6272 45.417ZM75.5993 40.8269C75.5036 40.6485 75.3771 40.6223 75.2198 40.7482C75.1809 40.7795 75.1535 40.8232 75.1423 40.8719C75.1311 40.9207 75.1367 40.9714 75.1583 41.0157C75.3155 41.3515 75.536 41.4966 75.8198 41.4511C75.8742 41.4423 75.9257 41.4195 75.9693 41.3849C76.0129 41.3504 76.0472 41.3051 76.0692 41.2533C76.0912 41.2016 76.1001 41.145 76.095 41.0888C76.0899 41.0326 76.0711 40.9786 76.0403 40.9318C75.9377 40.7744 75.8061 40.7447 75.6454 40.8426C75.6372 40.8464 75.6279 40.8469 75.6194 40.844C75.6108 40.8411 75.6036 40.835 75.5993 40.8269Z" fill="white"/>
  <path d="M50.355 19.9846C50.4439 20.1944 50.4541 20.3308 50.3857 20.3938C45.3161 24.9437 43.6035 30.632 45.2478 37.4587C45.9588 40.4139 47.7398 43.0316 50.5909 45.3118C50.6045 45.3468 50.6165 45.3818 50.6268 45.4167C46.622 48.4646 41.8686 49.5453 36.9716 48.2967C32.3601 47.1216 28.8715 44.1367 26.5059 39.342C25.6376 37.5793 25.2103 35.2834 25.224 32.4541C25.2342 29.985 25.7384 27.7765 26.7366 25.8285C29.0168 21.38 32.4028 18.5472 36.8947 17.3302C41.6669 16.0397 46.1537 16.9245 50.355 19.9846Z" fill="#EA001B"/>
  <path d="M50.6267 45.417C50.6164 45.382 50.6045 45.347 50.5908 45.3121C57.9799 39.4944 58.6978 28.6091 52.2112 21.7894C51.695 21.2439 51.1908 20.7 50.6985 20.158C56.6467 15.5573 65.0305 15.6937 70.6864 20.7822C73.7699 23.5556 75.5219 26.9217 75.9423 30.8806C76.356 34.7661 75.6449 38.1602 73.8092 41.0629C68.5738 49.3304 58.385 51.3868 50.6267 45.417Z" fill="#F79F1A"/>
  <path d="M50.3568 19.9854C50.3739 20.1008 50.4884 20.1585 50.7003 20.1585C51.1926 20.7005 51.6968 21.2444 52.213 21.7899C58.6996 28.6096 57.9817 39.4949 50.5927 45.3126C47.7416 43.0323 45.9606 40.4146 45.2496 37.4594C43.6053 30.6328 45.3179 24.9445 50.3875 20.3945C50.4559 20.3316 50.4457 20.1952 50.3568 19.9854Z" fill="#FF5F01"/>
  <path d="M75.6445 40.8435C75.8051 40.7455 75.9368 40.7753 76.0393 40.9327C76.0702 40.9794 76.089 41.0334 76.0941 41.0896C76.0991 41.1458 76.0902 41.2024 76.0683 41.2542C76.0463 41.3059 76.0119 41.3512 75.9683 41.3858C75.9247 41.4204 75.8733 41.4431 75.8188 41.452C75.5351 41.4975 75.3146 41.3523 75.1573 41.0166C75.1358 40.9723 75.1302 40.9215 75.1414 40.8728C75.1526 40.824 75.18 40.7803 75.2189 40.749C75.3761 40.6231 75.5026 40.6494 75.5983 40.8277C75.6027 40.8358 75.6099 40.8419 75.6184 40.8448C75.627 40.8477 75.6363 40.8473 75.6445 40.8435Z" fill="#FBB61B"/>
</svg>