<svg xmlns="http://www.w3.org/2000/svg" width="102" height="66" viewBox="0 0 102 66" fill="none">
  <path d="M9.45564 1C7.21714 1 5.07033 1.90973 3.48748 3.52906C1.90462 5.14839 1.01538 7.34467 1.01538 9.63475L1 56.3652C1 58.6553 1.88924 60.8516 3.47209 62.4709C5.05495 64.0903 7.20176 65 9.44025 65H92.5506C94.7891 65 96.9359 64.0903 98.5188 62.4709C100.102 60.8516 100.991 58.6553 100.991 56.3652L101.001 9.63475C101.001 7.34467 100.112 5.14839 98.529 3.52906C96.9462 1.90973 94.7993 1 92.5608 1H9.45564Z" stroke="#979A9D" stroke-width="2"/>
  <path d="M50.7902 39.4165L49.8826 43.8703C49.855 44.0049 49.8775 44.1452 49.9458 44.2636C50.0141 44.382 50.1233 44.47 50.2518 44.5103C55.4154 46.1523 64.6966 46.3778 66.5067 39.385C67.8502 34.2126 63.9224 31.9464 60.1432 30.0473C59.5416 29.7466 59.063 29.3199 58.7074 28.7673C58.5406 28.5099 58.4663 28.2009 58.4971 27.893C58.528 27.5851 58.6621 27.2972 58.8767 27.0782C60.7021 25.2106 64.5941 26.1496 66.6862 27.1306C66.7001 27.1366 66.715 27.1395 66.73 27.1392C66.7449 27.1389 66.7595 27.1354 66.7727 27.1289C66.7859 27.1224 66.7974 27.1131 66.8064 27.1016C66.8154 27.0901 66.8216 27.0767 66.8247 27.0624L67.8348 22.2519C67.8587 22.1295 67.8126 22.0491 67.6964 22.0106C64.0249 20.7971 60.6184 20.7691 57.4768 21.9267C55.0411 22.8237 52.9439 24.8224 52.4465 27.4716C51.5337 32.3555 55.3437 34.3018 58.8613 36.1273C59.6954 36.561 60.2731 37.2167 60.5945 38.0946C60.6282 38.1853 60.6424 38.2824 60.6362 38.3792C60.63 38.4761 60.6035 38.5704 60.5586 38.6559C58.9074 41.8034 53.6002 40.4447 51.2774 39.1805C51.2305 39.1556 51.1787 39.142 51.126 39.1409C51.0734 39.1398 51.0213 39.1512 50.9739 39.1742C50.9266 39.1971 50.8853 39.231 50.8534 39.273C50.8215 39.3151 50.7999 39.3643 50.7902 39.4165Z" stroke="#8B92C0" stroke-width="2"/>
  <path d="M29.6878 36.7826C28.9152 32.6908 28.1666 28.4975 27.4419 24.2029C27.1598 22.5347 26.1548 21.454 24.3909 21.4645C21.1741 21.4855 17.9897 21.4733 14.8379 21.4278C14.7251 21.4243 14.6328 21.4663 14.561 21.5537C14.4037 21.7356 14.3798 21.9332 14.4892 22.1465C14.5118 22.1895 14.5426 22.2271 14.5797 22.2569C14.6168 22.2867 14.6593 22.3081 14.7046 22.3196C16.4839 22.7813 18.3299 23.2639 19.9451 24.0875C21.4834 24.8639 21.5347 26.0337 21.9295 27.6127C23.3448 33.2363 24.7618 38.9299 26.1804 44.6934C26.2145 44.8274 26.2905 44.946 26.3963 45.0305C26.5021 45.1151 26.6318 45.1607 26.765 45.1603L32.2978 45.1445C32.4057 45.1444 32.5111 45.1114 32.6006 45.0497C32.6901 44.988 32.7596 44.9005 32.8003 44.7983L42.1072 21.8003C42.1215 21.7643 42.127 21.7252 42.123 21.6866C42.1191 21.6479 42.1059 21.6109 42.0846 21.5787C42.0633 21.5465 42.0345 21.5202 42.0009 21.5021C41.9673 21.484 41.9298 21.4747 41.8918 21.475H36.359C36.2488 21.4751 36.141 21.5097 36.0496 21.5742C35.9582 21.6388 35.8873 21.7303 35.8462 21.837L30.1031 36.8193C29.922 37.2914 29.7835 37.2792 29.6878 36.7826Z" stroke="#8C8FB1" stroke-width="2"/>
  <path d="M50.6271 21.8097C50.6355 21.7685 50.6348 21.7258 50.625 21.6848C50.6152 21.6439 50.5966 21.6057 50.5706 21.573C50.5445 21.5403 50.5117 21.514 50.4745 21.496C50.4372 21.478 50.3965 21.4686 50.3553 21.4688L44.9763 21.4845C44.9126 21.4843 44.8507 21.5067 44.8012 21.5478C44.7517 21.5889 44.7175 21.6462 44.7045 21.7101L39.8691 44.813C39.8607 44.8543 39.8614 44.897 39.8712 44.9379C39.881 44.9789 39.8995 45.0171 39.9256 45.0497C39.9516 45.0824 39.9845 45.1087 40.0217 45.1268C40.0589 45.1448 40.0997 45.1541 40.1409 45.154L45.5916 45.1383C45.6554 45.1384 45.7173 45.1161 45.7668 45.075C45.8163 45.0339 45.8504 44.9765 45.8634 44.9127L50.6271 21.8097Z" stroke="#8B92C0" stroke-width="2"/>
  <path d="M74.2747 41.6405L81.1305 41.6352C81.4074 41.6352 81.5663 41.7751 81.6073 42.0549L81.956 44.4418C81.983 44.6282 82.075 44.7985 82.2153 44.9218C82.3555 45.045 82.5346 45.1129 82.7201 45.1132L87.253 45.1237C87.3051 45.1241 87.3566 45.1125 87.4037 45.0898C87.4508 45.0672 87.4924 45.034 87.5253 44.9927C87.5583 44.9515 87.5818 44.9032 87.5941 44.8514C87.6064 44.7996 87.6073 44.7457 87.5965 44.6936L83.0021 21.79C82.9821 21.6949 82.9305 21.6097 82.8559 21.5486C82.7812 21.4875 82.688 21.4542 82.5919 21.4542C81.0775 21.4717 79.599 21.4787 78.1564 21.4752C76.7343 21.4717 75.7942 22.033 75.3361 23.1591C72.4099 30.3775 69.4751 37.5836 66.5318 44.7775C66.5155 44.8153 66.509 44.8566 66.5128 44.8978C66.5166 44.9389 66.5306 44.9785 66.5536 45.013C66.5765 45.0475 66.6077 45.0756 66.6442 45.095C66.6807 45.1143 66.7214 45.1242 66.7625 45.1237L72.2954 45.1132C72.4214 45.1135 72.5445 45.0732 72.6474 44.998C72.7504 44.9228 72.8281 44.8163 72.8697 44.6936L73.7824 41.9972C73.8645 41.7594 74.0285 41.6405 74.2747 41.6405Z" stroke="#8B92C0" stroke-width="2"/>
  <path d="M75.7062 36.5409C75.6963 36.5687 75.6931 36.5985 75.6969 36.6279C75.7006 36.6572 75.7113 36.6852 75.7279 36.7094C75.7445 36.7336 75.7666 36.7533 75.7923 36.7669C75.818 36.7805 75.8465 36.7876 75.8754 36.7875L80.2545 36.7613C80.2814 36.7618 80.3081 36.7562 80.3326 36.7447C80.3571 36.7333 80.3788 36.7164 80.396 36.6952C80.4132 36.6741 80.4256 36.6492 80.4322 36.6225C80.4387 36.5958 80.4394 36.5679 80.434 36.5409L78.8495 28.4832C78.8414 28.4444 78.8212 28.4093 78.792 28.3832C78.7627 28.3571 78.726 28.3414 78.6873 28.3384C78.6486 28.3354 78.61 28.3454 78.5773 28.3668C78.5446 28.3882 78.5196 28.4198 78.5059 28.457L75.7062 36.5409Z" stroke="#8B92C0" stroke-width="2"/>
  <path d="M9.45564 1H92.5608C94.7993 1 96.9462 1.90973 98.529 3.52906C100.112 5.14839 101.001 7.34467 101.001 9.63475L100.991 56.3652C100.991 58.6553 100.102 60.8516 98.5188 62.4709C96.9359 64.0903 94.7891 65 92.5506 65H9.44025C7.20176 65 5.05495 64.0903 3.47209 62.4709C1.88924 60.8516 1 58.6553 1 56.3652L1.01538 9.63475C1.01538 7.34467 1.90462 5.14839 3.48748 3.52906C5.07033 1.90973 7.21714 1 9.45564 1ZM50.7903 39.4157L49.8827 43.8695C49.855 44.0041 49.8776 44.1444 49.9459 44.2628C50.0142 44.3812 50.1234 44.4692 50.2519 44.5095C55.4155 46.1515 64.6967 46.377 66.5068 39.3843C67.8503 34.2118 63.9224 31.9456 60.1433 30.0466C59.5417 29.7458 59.0631 29.3191 58.7075 28.7666C58.5407 28.5091 58.4664 28.2001 58.4972 27.8922C58.5281 27.5843 58.6622 27.2964 58.8768 27.0774C60.7022 25.2098 64.5942 26.1489 66.6863 27.1298C66.7001 27.1358 66.7151 27.1387 66.73 27.1384C66.745 27.1381 66.7596 27.1346 66.7728 27.1281C66.786 27.1216 66.7975 27.1123 66.8065 27.1008C66.8155 27.0893 66.8217 27.0759 66.8247 27.0616L67.8349 22.2511C67.8588 22.1287 67.8127 22.0483 67.6965 22.0098C64.025 20.7963 60.6185 20.7683 57.4769 21.9259C55.0412 22.8229 52.944 24.8216 52.4466 27.4708C51.5338 32.3548 55.3437 34.301 58.8614 36.1266C59.6955 36.5602 60.2732 37.216 60.5945 38.0938C60.6283 38.1845 60.6425 38.2816 60.6363 38.3784C60.6301 38.4753 60.6036 38.5696 60.5587 38.6551C58.9075 41.8026 53.6003 40.4439 51.2775 39.1797C51.2306 39.1548 51.1788 39.1412 51.1261 39.1402C51.0734 39.1391 51.0214 39.1504 50.974 39.1734C50.9267 39.1963 50.8854 39.2302 50.8535 39.2723C50.8216 39.3143 50.8 39.3635 50.7903 39.4157ZM29.6897 36.7823C28.9171 32.6905 28.1685 28.4973 27.4437 24.2026C27.1617 22.5344 26.1567 21.4538 24.3927 21.4643C21.1759 21.4852 17.9916 21.473 14.8398 21.4275C14.7269 21.424 14.6346 21.466 14.5629 21.5534C14.4056 21.7353 14.3817 21.9329 14.4911 22.1462C14.5137 22.1892 14.5445 22.2268 14.5816 22.2566C14.6187 22.2864 14.6612 22.3078 14.7064 22.3193C16.4858 22.781 18.3317 23.2636 19.947 24.0872C21.4853 24.8636 21.5366 26.0334 21.9314 27.6125C23.3467 33.2361 24.7636 38.9296 26.1823 44.6931C26.2164 44.8271 26.2923 44.9457 26.3982 45.0303C26.504 45.1148 26.6337 45.1604 26.7669 45.16L32.2997 45.1443C32.4076 45.1441 32.513 45.1111 32.6025 45.0494C32.692 44.9878 32.7615 44.9002 32.8022 44.798L42.1091 21.8C42.1234 21.764 42.1289 21.725 42.1249 21.6863C42.121 21.6477 42.1078 21.6106 42.0865 21.5784C42.0651 21.5462 42.0364 21.5199 42.0028 21.5019C41.9692 21.4838 41.9317 21.4745 41.8937 21.4748H36.3609C36.2507 21.4748 36.1429 21.5094 36.0515 21.574C35.96 21.6385 35.8892 21.7301 35.8481 21.8367L30.105 36.819C29.9238 37.2911 29.7854 37.2789 29.6897 36.7823ZM50.6262 21.8105C50.6346 21.7692 50.6339 21.7266 50.6241 21.6856C50.6144 21.6446 50.5958 21.6064 50.5697 21.5738C50.5437 21.5411 50.5109 21.5148 50.4736 21.4967C50.4364 21.4787 50.3957 21.4694 50.3545 21.4695L44.9755 21.4852C44.9117 21.4851 44.8498 21.5074 44.8003 21.5485C44.7508 21.5896 44.7167 21.647 44.7037 21.7108L39.8682 44.8138C39.8598 44.855 39.8606 44.8977 39.8703 44.9387C39.8801 44.9796 39.8987 45.0178 39.9247 45.0505C39.9508 45.0832 39.9836 45.1095 40.0209 45.1275C40.0581 45.1455 40.0988 45.1549 40.14 45.1548L45.5908 45.139C45.6545 45.1392 45.7164 45.1168 45.7659 45.0757C45.8154 45.0346 45.8496 44.9773 45.8626 44.9134L50.6262 21.8105ZM74.2753 41.64L81.1311 41.6348C81.408 41.6348 81.567 41.7746 81.608 42.0544L81.9567 44.4413C81.9837 44.6278 82.0757 44.7981 82.2159 44.9213C82.3561 45.0445 82.5353 45.1125 82.7207 45.1128L87.2536 45.1233C87.3057 45.1236 87.3572 45.1121 87.4044 45.0894C87.4515 45.0667 87.493 45.0335 87.526 44.9923C87.559 44.951 87.5825 44.9027 87.5948 44.851C87.6071 44.7992 87.6079 44.7453 87.5972 44.6931L83.0027 21.7895C82.9828 21.6945 82.9312 21.6093 82.8565 21.5482C82.7819 21.4871 82.6887 21.4538 82.5925 21.4538C81.0781 21.4713 79.5996 21.4783 78.157 21.4748C76.7349 21.4713 75.7949 22.0326 75.3368 23.1587C72.4106 30.377 69.4758 37.5832 66.5325 44.777C66.5162 44.8148 66.5096 44.8562 66.5134 44.8973C66.5172 44.9385 66.5313 44.9781 66.5542 45.0126C66.5772 45.047 66.6083 45.0752 66.6449 45.0945C66.6814 45.1139 66.7221 45.1238 66.7632 45.1233L72.296 45.1128C72.4221 45.1131 72.5451 45.0728 72.6481 44.9976C72.751 44.9223 72.8287 44.8159 72.8703 44.6931L73.7831 41.9967C73.8651 41.7589 74.0292 41.64 74.2753 41.64Z" fill="white"/>
  <path d="M50.7902 39.4165C50.7999 39.3643 50.8215 39.3151 50.8534 39.273C50.8853 39.231 50.9266 39.1971 50.9739 39.1742C51.0213 39.1512 51.0734 39.1398 51.126 39.1409C51.1787 39.142 51.2305 39.1556 51.2774 39.1805C53.6002 40.4447 58.9074 41.8034 60.5586 38.6559C60.6035 38.5704 60.63 38.4761 60.6362 38.3792C60.6424 38.2824 60.6282 38.1853 60.5945 38.0946C60.2731 37.2167 59.6954 36.561 58.8613 36.1273C55.3437 34.3018 51.5337 32.3555 52.4465 27.4716C52.9439 24.8224 55.0411 22.8237 57.4768 21.9267C60.6184 20.7691 64.0249 20.7971 67.6964 22.0106C67.8126 22.0491 67.8587 22.1295 67.8348 22.2519L66.8247 27.0624C66.8216 27.0767 66.8154 27.0901 66.8064 27.1016C66.7974 27.1131 66.7859 27.1224 66.7727 27.1289C66.7595 27.1354 66.7449 27.1389 66.73 27.1392C66.715 27.1395 66.7001 27.1366 66.6862 27.1306C64.5941 26.1496 60.7021 25.2106 58.8767 27.0782C58.6621 27.2972 58.528 27.5851 58.4971 27.893C58.4663 28.2009 58.5406 28.5099 58.7074 28.7673C59.063 29.3199 59.5416 29.7466 60.1432 30.0473C63.9224 31.9464 67.8502 34.2126 66.5067 39.385C64.6966 46.3778 55.4154 46.1523 50.2518 44.5103C50.1233 44.47 50.0141 44.382 49.9458 44.2636C49.8775 44.1452 49.855 44.0049 49.8826 43.8703L50.7902 39.4165Z" fill="#162581"/>
  <path d="M29.6898 36.7826C29.7855 37.2792 29.9239 37.2914 30.1051 36.8193L35.8482 21.837C35.8892 21.7303 35.9601 21.6388 36.0516 21.5742C36.143 21.5097 36.2508 21.4751 36.3609 21.475H41.8938C41.9318 21.4747 41.9692 21.484 42.0029 21.5021C42.0365 21.5202 42.0652 21.5465 42.0865 21.5787C42.1078 21.6109 42.121 21.6479 42.125 21.6866C42.1289 21.7252 42.1235 21.7643 42.1091 21.8003L32.8023 44.7983C32.7616 44.9005 32.692 44.988 32.6026 45.0497C32.5131 45.1114 32.4077 45.1444 32.2998 45.1445L26.7669 45.1603C26.6338 45.1607 26.5041 45.1151 26.3982 45.0305C26.2924 44.946 26.2165 44.8274 26.1824 44.6934C24.7637 38.9299 23.3467 33.2363 21.9315 27.6127C21.5367 26.0337 21.4854 24.8639 19.9471 24.0875C18.3318 23.2639 16.4858 22.7813 14.7065 22.3196C14.6613 22.3081 14.6187 22.2867 14.5816 22.2569C14.5446 22.2271 14.5137 22.1895 14.4911 22.1465C14.3818 21.9332 14.4057 21.7356 14.5629 21.5537C14.6347 21.4663 14.727 21.4243 14.8398 21.4278C17.9917 21.4733 21.176 21.4855 24.3928 21.4645C26.1567 21.454 27.1618 22.5347 27.4438 24.2029C28.1685 28.4975 28.9172 32.6908 29.6898 36.7826Z" fill="#191E63"/>
  <path d="M50.6271 21.8107L45.8634 44.9137C45.8504 44.9775 45.8163 45.0348 45.7668 45.0759C45.7173 45.117 45.6554 45.1394 45.5916 45.1392L40.1409 45.155C40.0997 45.1551 40.0589 45.1458 40.0217 45.1277C39.9845 45.1097 39.9516 45.0834 39.9256 45.0507C39.8995 45.018 39.881 44.9798 39.8712 44.9389C39.8614 44.8979 39.8607 44.8553 39.8691 44.814L44.7045 21.711C44.7175 21.6472 44.7517 21.5899 44.8012 21.5488C44.8507 21.5077 44.9126 21.4853 44.9763 21.4855L50.3553 21.4697C50.3965 21.4696 50.4372 21.4789 50.4745 21.497C50.5117 21.515 50.5445 21.5413 50.5706 21.574C50.5966 21.6067 50.6152 21.6449 50.625 21.6858C50.6348 21.7268 50.6355 21.7694 50.6271 21.8107Z" fill="#162581"/>
  <path d="M73.7844 41.9981L72.8716 44.6945C72.83 44.8173 72.7523 44.9238 72.6494 44.999C72.5464 45.0742 72.4233 45.1145 72.2973 45.1142L66.7645 45.1247C66.7234 45.1252 66.6827 45.1153 66.6461 45.096C66.6096 45.0766 66.5785 45.0484 66.5555 45.014C66.5325 44.9795 66.5185 44.9399 66.5147 44.8988C66.5109 44.8576 66.5175 44.8163 66.5337 44.7785C69.4771 37.5846 72.4118 30.3785 75.3381 23.1601C75.7962 22.034 76.7362 21.4727 78.1583 21.4762C79.6009 21.4797 81.0794 21.4727 82.5938 21.4552C82.69 21.4552 82.7832 21.4885 82.8578 21.5496C82.9325 21.6107 82.9841 21.6959 83.004 21.7909L87.5985 44.6945C87.6092 44.7467 87.6084 44.8006 87.5961 44.8524C87.5837 44.9042 87.5602 44.9524 87.5273 44.9937C87.4943 45.035 87.4528 45.0681 87.4056 45.0908C87.3585 45.1135 87.307 45.1251 87.2549 45.1247L82.722 45.1142C82.5366 45.1139 82.3574 45.046 82.2172 44.9228C82.077 44.7995 81.985 44.6292 81.958 44.4427L81.6093 42.0559C81.5683 41.7761 81.4093 41.6362 81.1324 41.6362L74.2766 41.6414C74.0305 41.6414 73.8664 41.7603 73.7844 41.9981ZM75.7073 36.5424C75.6973 36.5702 75.6941 36.6 75.6979 36.6294C75.7017 36.6587 75.7124 36.6867 75.729 36.7109C75.7456 36.7351 75.7677 36.7548 75.7934 36.7684C75.8191 36.782 75.8476 36.7891 75.8765 36.789L80.2556 36.7627C80.2825 36.7633 80.3092 36.7577 80.3337 36.7462C80.3582 36.7348 80.3798 36.7179 80.3971 36.6967C80.4143 36.6756 80.4267 36.6507 80.4332 36.624C80.4398 36.5973 80.4404 36.5694 80.435 36.5424L78.8506 28.4847C78.8425 28.4459 78.8223 28.4108 78.7931 28.3847C78.7638 28.3586 78.7271 28.3428 78.6884 28.3399C78.6497 28.3369 78.6111 28.3469 78.5784 28.3683C78.5457 28.3897 78.5206 28.4213 78.507 28.4585L75.7073 36.5424Z" fill="#162581"/>
  <path d="M75.7062 36.5419L78.5059 28.458C78.5196 28.4208 78.5446 28.3891 78.5773 28.3678C78.61 28.3464 78.6486 28.3364 78.6873 28.3394C78.726 28.3423 78.7627 28.358 78.792 28.3842C78.8212 28.4103 78.8414 28.4454 78.8495 28.4842L80.434 36.5419C80.4394 36.5689 80.4387 36.5968 80.4322 36.6235C80.4256 36.6502 80.4132 36.675 80.396 36.6962C80.3788 36.7174 80.3571 36.7343 80.3326 36.7457C80.3081 36.7571 80.2814 36.7628 80.2545 36.7622L75.8754 36.7885C75.8465 36.7886 75.818 36.7815 75.7923 36.7679C75.7666 36.7543 75.7445 36.7346 75.7279 36.7104C75.7113 36.6861 75.7006 36.6582 75.6969 36.6289C75.6931 36.5995 75.6963 36.5697 75.7062 36.5419Z" fill="white"/>
</svg>